<?xml version="1.0" encoding="UTF-8" standalone="no"?>
<!-- Created with Inkscape (http://www.inkscape.org/) -->

<svg
   xmlns:dc="http://purl.org/dc/elements/1.1/"
   xmlns:cc="http://creativecommons.org/ns#"
   xmlns:rdf="http://www.w3.org/1999/02/22-rdf-syntax-ns#"
   xmlns:svg="http://www.w3.org/2000/svg"
   xmlns="http://www.w3.org/2000/svg"
   xmlns:sodipodi="http://sodipodi.sourceforge.net/DTD/sodipodi-0.dtd"
   xmlns:inkscape="http://www.inkscape.org/namespaces/inkscape"
   width="400"
   height="90"
   viewBox="0 0 105.83333 23.812501"
   version="1.1"
   id="svg5160"
   inkscape:version="0.92.1 r15371"
   sodipodi:docname="rofl.svg">
  <defs
     id="defs5154" />
  <sodipodi:namedview
     id="base"
     pagecolor="#ffffff"
     bordercolor="#666666"
     borderopacity="1.0"
     inkscape:pageopacity="0.0"
     inkscape:pageshadow="2"
     inkscape:zoom="0.98994949"
     inkscape:cx="168.43244"
     inkscape:cy="141.81215"
     inkscape:document-units="mm"
     inkscape:current-layer="layer1"
     showgrid="false"
     units="px"
     inkscape:window-width="1280"
     inkscape:window-height="961"
     inkscape:window-x="-8"
     inkscape:window-y="-8"
     inkscape:window-maximized="1" />
  <metadata
     id="metadata5157">
    <rdf:RDF>
      <cc:Work
         rdf:about="">
        <dc:format>image/svg+xml</dc:format>
        <dc:type
           rdf:resource="http://purl.org/dc/dcmitype/StillImage" />
        <dc:title></dc:title>
      </cc:Work>
    </rdf:RDF>
  </metadata>
  <g
     inkscape:label="Layer 1"
     inkscape:groupmode="layer"
     id="layer1"
     transform="translate(0,-273.18748)">
    <path
       style="fill:#000000;fill-opacity:1;fill-rule:evenodd;stroke:#000000;stroke-width:0.00622218px;stroke-linecap:butt;stroke-linejoin:miter;stroke-opacity:1"
       d="m 0.29194637,275.96318 c 0,0 0.73871603,-1.05706 1.24316403,-1.44225 0.5535958,-0.42271 1.2222758,-0.68863 1.8862028,-0.89924 0.354316,-0.1124 0.730622,-0.13967 1.09917,-0.1881 0.308883,-0.0406 0.619424,-0.099 0.930677,-0.0857 0.466858,0.02 0.935805,0.1018 1.379879,0.24725 0.412596,0.13513 0.865976,0.34063 1.169558,0.57324 1.328489,1.39349 2.1231328,2.5653 2.6131388,4.05578 0.05719,0.16948 0.227305,0.30667 0.228487,0.48554 7.67e-4,0.11503 -0.06828,0.22653 -0.142804,0.31416 -0.08895,0.1046 -0.254925,0.12293 -0.34273,0.22849 -0.04637,0.0557 -0.08568,0.0857 -0.08568,0.19993 0,0.11424 0.199926,0.45697 0.199926,0.45697 l 0.314168,0.48553 c 0,0 0.446333,0.52396 0.68546,0.77114 0.182606,0.18876 0.380213,0.36241 0.571216,0.54266 0.151852,0.14331 0.351183,0.2484 0.456973,0.42841 0.119329,0.20305 0.183203,0.45024 0.171364,0.68546 -0.01272,0.25264 -0.11808,0.50265 -0.257047,0.71402 -0.114705,0.17447 -0.279305,0.31873 -0.456972,0.42841 -0.164032,0.10127 -0.369565,0.11508 -0.542656,0.19993 -0.16129,0.0791 -0.358977,0.13507 -0.456973,0.28561 -0.07345,0.11283 -0.06086,0.26526 -0.05712,0.39985 0.0054,0.1941 0.04534,0.38967 0.114243,0.57122 0.04693,0.12365 0.150068,0.22022 0.199926,0.34272 0.04439,0.10908 0.08842,0.22501 0.08568,0.34273 -0.0023,0.0994 -0.0195,0.21146 -0.08568,0.28561 -0.09656,0.10819 -0.399852,0.17137 -0.399852,0.17137 0,0 0.120518,8.4e-4 0.171365,0.0286 0.124266,0.0677 0.234573,0.18216 0.285608,0.31417 0.05836,0.15095 0.0406,0.32886 0,0.48553 -0.04917,0.18977 -0.203365,0.33615 -0.285608,0.51409 -0.03413,0.0738 -0.07782,0.14753 -0.08568,0.22849 -0.01679,0.17292 0.03419,0.34817 0.08568,0.5141 0.0467,0.1505 0.138013,0.28349 0.199926,0.42841 0.07224,0.16908 0.144197,0.33888 0.199925,0.51409 0.05949,0.18704 0.124915,0.37577 0.142805,0.57122 0.01391,0.15198 0.0075,0.30867 -0.02856,0.45697 -0.06142,0.25267 -0.128499,0.53198 -0.314169,0.71402 -0.176745,0.1733 -0.448375,0.21447 -0.685459,0.28561 -0.389868,0.11698 -0.7934768,0.2005 -1.1995548,0.22849 -0.453213,0.0312 -0.961181,-0.0642 -1.361118,-0.069 -0.109311,0.15614 -0.152615,0.22602 -0.152605,0.4688 l -0.112808,1.17936 c 0,0 -0.08254,0.75619 0.112808,1.04838 0.132601,0.19833 0.418049,0.23005 0.628338,0.34273 0.180172,0.0965 0.370319,0.17569 0.542656,0.28561 0.211906,0.13516 0.412659,0.28916 0.599776,0.45697 0.195519,0.17535 0.397997,0.35202 0.5426548,0.57122 0.185496,0.28107 0.399852,0.9278 0.399852,0.9278 l -10.21650563,0.0926 z"
       id="path3453"
       inkscape:connector-curvature="0"
       sodipodi:nodetypes="caaaaaccaaasccaaaaaaaaaaaaacaaaaaaaaaaaaacccaaaaaccc" />
    <path
       style="fill:#000000;fill-opacity:1;fill-rule:evenodd;stroke:#000000;stroke-width:0.00622218px;stroke-linecap:butt;stroke-linejoin:miter;stroke-opacity:1"
       d="m 106.14411,275.95422 c 0,0 -0.73872,-1.05706 -1.24317,-1.44225 -0.55359,-0.42271 -1.22227,-0.68863 -1.8862,-0.89924 -0.35431,-0.1124 -0.73062,-0.13967 -1.09917,-0.1881 -0.30888,-0.0406 -0.61942,-0.099 -0.93068,-0.0857 -0.46685,0.02 -0.9358,0.1018 -1.379875,0.24725 -0.412596,0.13513 -0.865976,0.34063 -1.169558,0.57324 -1.328489,1.39349 -2.123132,2.5653 -2.613137,4.05578 -0.05719,0.16948 -0.227305,0.30667 -0.228487,0.48554 -7.67e-4,0.11503 0.06828,0.22653 0.142804,0.31416 0.08895,0.1046 0.254925,0.12293 0.34273,0.22849 0.04637,0.0557 0.08568,0.0857 0.08568,0.19993 0,0.11424 -0.199926,0.45697 -0.199926,0.45697 l -0.314168,0.48553 c 0,0 -0.446333,0.52396 -0.68546,0.77114 -0.182606,0.18876 -0.380213,0.36241 -0.571216,0.54266 -0.151852,0.14331 -0.351183,0.2484 -0.456973,0.42841 -0.119329,0.20305 -0.183203,0.45024 -0.171364,0.68546 0.01272,0.25264 0.11808,0.50265 0.257047,0.71402 0.114705,0.17447 0.279305,0.31873 0.456972,0.42841 0.164032,0.10127 0.369565,0.11508 0.542656,0.19993 0.16129,0.0791 0.358977,0.13507 0.456973,0.28561 0.07345,0.11283 0.06086,0.26526 0.05712,0.39985 -0.0054,0.1941 -0.04534,0.38967 -0.114243,0.57122 -0.04693,0.12365 -0.150068,0.22022 -0.199926,0.34272 -0.04439,0.10908 -0.08842,0.22501 -0.08568,0.34273 0.0023,0.0994 0.0195,0.21146 0.08568,0.28561 0.09656,0.10819 0.399852,0.17137 0.399852,0.17137 0,0 -0.120518,8.5e-4 -0.171365,0.0286 -0.124266,0.0677 -0.234573,0.18216 -0.285608,0.31417 -0.05836,0.15095 -0.0406,0.32886 0,0.48553 0.04917,0.18977 0.203365,0.33615 0.285608,0.51409 0.03413,0.0738 0.07782,0.14753 0.08568,0.22849 0.01679,0.17292 -0.03419,0.34817 -0.08568,0.5141 -0.0467,0.1505 -0.138013,0.28349 -0.199926,0.42841 -0.07224,0.16908 -0.144197,0.33888 -0.199925,0.51409 -0.05949,0.18704 -0.124915,0.37577 -0.142805,0.57122 -0.01391,0.15198 -0.0075,0.30867 0.02856,0.45697 0.06142,0.25267 0.128499,0.53198 0.314169,0.71402 0.176745,0.1733 0.448375,0.21447 0.685459,0.28561 0.389868,0.11698 0.793475,0.2005 1.199553,0.22849 0.453213,0.0312 0.961181,-0.0642 1.361118,-0.069 0.109311,0.15614 0.152615,0.22602 0.152605,0.4688 l 0.112808,1.17936 c 0,0 0.08254,0.75619 -0.112808,1.04838 -0.132601,0.19833 -0.418049,0.23005 -0.628338,0.34273 -0.180172,0.0965 -0.370319,0.17569 -0.542656,0.28561 -0.211906,0.13516 -0.412659,0.28916 -0.599776,0.45697 -0.195518,0.17535 -0.397997,0.35202 -0.542654,0.57122 -0.185495,0.28107 -0.399851,0.9278 -0.399851,0.9278 l 10.216501,0.0926 z"
       id="path3453-8"
       inkscape:connector-curvature="0"
       sodipodi:nodetypes="caaaaaccaaasccaaaaaaaaaaaaacaaaaaaaaaaaaacccaaaaaccc" />
    <rect
       style="fill:#fbfbfb;fill-opacity:1;stroke:#000000;stroke-width:0.65600002;stroke-miterlimit:4;stroke-dasharray:none;stroke-opacity:1"
       id="rect5741-9"
       width="17.269213"
       height="17.001942"
       x="74.218948"
       y="276.40509"
       inkscape:transform-center-x="12.982236"
       inkscape:transform-center-y="-2.5995915" />
    <rect
       style="fill:#fbfbfb;fill-opacity:1;stroke:#000000;stroke-width:0.65600002;stroke-miterlimit:4;stroke-dasharray:none;stroke-opacity:1"
       id="rect5741-9-4"
       width="17.269213"
       height="17.001942"
       x="54.797367"
       y="276.40509"
       inkscape:transform-center-x="12.982236"
       inkscape:transform-center-y="-2.5995915" />
    <rect
       style="fill:#fbfbfb;fill-opacity:1;stroke:#000000;stroke-width:0.65600002;stroke-miterlimit:4;stroke-dasharray:none;stroke-opacity:1"
       id="rect5741-9-5"
       width="17.269213"
       height="17.001942"
       x="35.375778"
       y="276.40509"
       inkscape:transform-center-x="12.982236"
       inkscape:transform-center-y="-2.5995915" />
    <rect
       style="fill:#fbfbfb;fill-opacity:1;stroke:#000000;stroke-width:0.65600002;stroke-miterlimit:4;stroke-dasharray:none;stroke-opacity:1"
       id="rect5741-9-0"
       width="17.269213"
       height="17.001942"
       x="15.954188"
       y="276.40506"
       inkscape:transform-center-x="12.982236"
       inkscape:transform-center-y="-2.5995915" />
  </g>
</svg>
