<?xml version="1.0" encoding="UTF-8" standalone="no"?>
<!-- Created with Inkscape (http://www.inkscape.org/) -->

<svg
   xmlns:dc="http://purl.org/dc/elements/1.1/"
   xmlns:cc="http://creativecommons.org/ns#"
   xmlns:rdf="http://www.w3.org/1999/02/22-rdf-syntax-ns#"
   xmlns:svg="http://www.w3.org/2000/svg"
   xmlns="http://www.w3.org/2000/svg"
   xmlns:sodipodi="http://sodipodi.sourceforge.net/DTD/sodipodi-0.dtd"
   xmlns:inkscape="http://www.inkscape.org/namespaces/inkscape"
   id="svg3443"
   version="1.1"
   inkscape:version="0.91 r13725"
   width="3780"
   height="5040"
   viewBox="0 0 3780 5040"
   sodipodi:docname="ronald-oppenheimer.jpg.svg"
   inkscape:export-filename="/home/knits4/escape-room/graphics/Ronald-Oppenheimer.png"
   inkscape:export-xdpi="90"
   inkscape:export-ydpi="90">
  <metadata
     id="metadata3449">
    <rdf:RDF>
      <cc:Work
         rdf:about="">
        <dc:format>image/svg+xml</dc:format>
        <dc:type
           rdf:resource="http://purl.org/dc/dcmitype/StillImage" />
        <dc:title></dc:title>
      </cc:Work>
    </rdf:RDF>
  </metadata>
  <defs
     id="defs3447" />
  <sodipodi:namedview
     pagecolor="#ffffff"
     bordercolor="#666666"
     borderopacity="1"
     objecttolerance="10"
     gridtolerance="10"
     guidetolerance="10"
     inkscape:pageopacity="0"
     inkscape:pageshadow="2"
     inkscape:window-width="1280"
     inkscape:window-height="722"
     id="namedview3445"
     showgrid="false"
     inkscape:zoom="0.054464286"
     inkscape:cx="-2629.0529"
     inkscape:cy="1307.2103"
     inkscape:window-x="0"
     inkscape:window-y="25"
     inkscape:window-maximized="1"
     inkscape:current-layer="svg3443" />
  <path
     style="fill:#000000;fill-opacity:1;fill-rule:evenodd;stroke:#000000;stroke-width:1px;stroke-linecap:butt;stroke-linejoin:miter;stroke-opacity:1"
     d="m 108.34177,1500.2288 c 0,0 118.72297,-169.8861 199.79567,-231.7917 88.97133,-67.9368 196.4386,-110.6742 303.14191,-144.5225 56.94411,-18.0638 117.4223,-22.4473 176.65374,-30.2299 49.64221,-6.5226 99.55096,-15.9101 149.57411,-13.7705 75.0313,3.2093 150.3984,16.3612 221.7678,39.7364 66.3107,21.7184 139.1759,54.7443 187.9661,92.1295 213.5088,223.9556 341.2204,412.2828 419.972,651.8265 9.192,27.2379 36.5313,49.2862 36.7213,78.0327 0.1222,18.4873 -10.9742,36.4079 -22.9508,50.4918 -14.2952,16.8105 -40.9704,19.7566 -55.082,36.7214 -7.4518,8.9584 -13.7705,13.7704 -13.7705,32.1311 0,18.3607 32.1312,73.4426 32.1312,73.4426 l 50.4918,78.0328 c 0,0 71.7326,84.2087 110.1639,123.9344 29.3476,30.336 61.1063,58.2435 91.8033,87.2132 24.4049,23.0316 56.4406,39.9217 73.4426,68.8524 19.178,32.6334 29.4437,72.3603 27.541,110.1639 -2.0436,40.6032 -18.9774,80.7838 -41.3115,114.7541 -18.4348,28.0395 -44.8887,51.225 -73.4426,68.8525 -26.3624,16.2745 -59.3947,18.494 -87.2131,32.1312 -25.9218,12.7074 -57.6931,21.7071 -73.4426,45.9016 -11.8048,18.1345 -9.7807,42.6324 -9.1803,64.2623 0.8659,31.1951 7.2873,62.6268 18.3606,91.8033 7.5424,19.873 24.1182,35.3939 32.1312,55.0819 7.1345,17.5295 14.2103,36.1614 13.7705,55.082 -0.3712,15.9699 -3.1335,33.984 -13.7705,45.9016 -15.5185,17.3869 -64.2623,27.541 -64.2623,27.541 0,0 19.3691,0.1359 27.5409,4.5902 19.9716,10.8863 37.6996,29.2762 45.9017,50.4918 9.3795,24.261 6.5246,52.8535 0,78.0328 -7.903,30.4985 -32.6839,54.0239 -45.9017,82.6229 -5.4845,11.8667 -12.5068,23.7097 -13.7704,36.7213 -2.6988,27.7901 5.4955,55.9565 13.7704,82.623 7.5061,24.1891 22.1808,45.5621 32.1312,68.8525 11.6096,27.1741 23.1747,54.4627 32.1311,82.6229 9.5604,30.0592 20.0757,60.3917 22.9509,91.8033 2.2359,24.4265 1.2037,49.6081 -4.5902,73.4426 -9.8713,40.6078 -20.6517,85.4966 -50.4918,114.7541 -28.4056,27.851 -72.0608,34.4686 -110.1639,45.9016 -62.6578,18.8007 -127.524,32.224 -192.7869,36.7214 -72.8384,5.0194 -154.4768,-10.3166 -218.7528,-11.0817 -17.568,25.0953 -24.5275,36.3262 -24.5259,75.3439 l -18.1301,189.5412 c 0,0 -13.2657,121.532 18.1301,168.4916 21.3109,31.8753 67.1869,36.9721 100.9836,55.082 28.9565,15.5163 59.516,28.2353 87.2131,45.9016 34.0566,21.7226 66.3208,46.473 96.3934,73.4427 31.4229,28.1807 63.9642,56.5748 87.2131,91.8032 29.812,45.1731 64.2623,149.1128 64.2623,149.1128 l -1641.9506,14.8842 z"
     id="path3453"
     inkscape:connector-curvature="0"
     sodipodi:nodetypes="caaaaaccaaasccaaaaaaaaaaaaacaaaaaaaaaaaaacccaaaaaccc" />
</svg>
